<svg width="224" height="82" viewBox="0 0 224 82" fill="none" xmlns="http://www.w3.org/2000/svg">
<path d="M2.9163 0.636152L5.91122 3.10301V14.2215H22.1009L24.3025 16.9641L22.0938 19.5723H5.91122V30.2031L2.9163 32.6699L0 30.2031V3.10301L2.9163 0.636152ZM11.6723 28.6551H24.0165L26.0823 31.2563L23.8807 34.0059H11.6723L9.6781 31.4683L11.6723 28.6551ZM12.1012 0H23.8736L26.0751 2.74252L23.8736 5.35075H12.2442L9.89253 2.82027L12.1012 0ZM77.7107 5.28006L80.3482 8.09327L77.7107 10.9135H37.8475L35.2815 8.09327L37.8475 5.28006H77.7107ZM33.1443 16.9711L35.6317 14.8577L38.1263 16.9711V20.0741C38.1263 25.2835 39.5487 29.574 45.8888 29.574H47.1682C52.865 29.574 55.9957 25.7712 55.9957 19.855V16.9004L58.4188 14.787L60.9134 16.8298V20.0671C60.9134 25.3471 62.4788 29.2913 68.6044 29.2913H69.6694C75.6521 29.2913 76.7171 24.7817 76.7886 19.855V16.6884L79.2117 14.7163L81.7706 16.7591V19.9257C81.6992 26.7537 79.8479 34.5713 69.8839 34.5713H68.8188C62.9076 34.5713 59.7054 31.9631 58.426 28.7258C56.9321 32.0338 52.9436 34.9247 47.5327 34.9247H46.2461C35.9962 34.9247 33.2229 28.8035 33.1514 20.2084V16.9711H33.1443ZM53.5083 67.934L52.0859 64.1312L55.7884 63.078L68.8188 68.9165V56.8791L71.4564 54.6949L74.1582 56.8791V71.454L78.9973 73.6381L80.3482 77.1582L76.5742 78.4941L53.5083 67.934ZM76.7171 42.2334L80.2767 43.8521L79.1402 47.4428L47.0967 62.1591L43.2512 60.6818L44.8166 57.0204L76.7171 42.2334ZM30.4853 62.3005L33.616 64.838C33.3301 73.7795 25.5676 78.4941 16.3899 78.4941H15.4607C10.9004 78.4941 5.56812 76.8047 2.15148 73.5674L2.50887 69.9767L5.85403 69.5526C8.34861 71.6661 11.8367 73.1433 15.1104 73.1433H16.1111C22.3082 73.1433 27.0758 70.6129 27.5761 64.626L30.4853 62.3005ZM27.5618 56.455C27.2759 50.256 22.5798 47.7962 16.0968 47.7962H15.0961C11.2506 47.7962 8.33431 49.2735 5.83974 51.3869L2.49458 50.9628L2.13719 47.3721C5.55383 44.0641 10.3214 42.5162 15.3105 42.5162H16.3041C25.5605 42.5162 33.323 47.1671 33.6017 56.2429L30.471 58.7098L27.5618 56.455Z" fill="#FCFAF9"/>
<path d="M111.53 10.2349H104.253C104.418 11.6344 105.404 12.6664 106.855 12.6664C107.734 12.6664 108.556 12.3201 109.028 11.6132L111.344 11.6768C110.522 13.4793 108.821 14.4335 106.855 14.4335C104.11 14.4335 102.08 12.4049 102.08 9.61288C102.08 6.81381 104.067 4.8064 106.798 4.8064C109.278 4.8064 111.53 6.44625 111.53 10.2208V10.2349ZM104.253 8.75761H109.235C109.135 7.58426 108.17 6.56642 106.819 6.56642C105.44 6.56642 104.496 7.45703 104.253 8.75761Z" fill="#FCFAF9"/>
<path d="M118.641 7.52065C117.941 6.84915 116.919 6.53108 116.225 6.53108C115.425 6.53108 115.018 6.95518 115.018 7.37928C115.018 7.8882 115.246 8.12852 115.875 8.35471L117.476 8.89897C119.198 9.48565 119.913 10.4187 119.913 11.5567C119.913 13.0198 118.784 14.4335 116.468 14.4335C114.953 14.4335 113.452 13.8256 112.573 12.9916L113.781 11.4294C114.481 12.1151 115.561 12.624 116.425 12.624C117.247 12.624 117.776 12.2776 117.776 11.7334C117.776 11.1467 117.49 10.9064 116.461 10.56L114.925 10.0299C113.631 9.5846 112.916 8.63038 112.916 7.49944C112.916 6.16352 114.081 4.8064 116.297 4.8064C117.383 4.8064 118.841 5.2305 119.799 6.12111L118.641 7.52065Z" fill="#FCFAF9"/>
<path d="M126.118 12.6664C127.183 12.6664 128.005 12.1575 128.477 11.3305L130.243 12.2211C129.506 13.5782 127.884 14.4335 126.125 14.4335C123.381 14.4335 121.229 12.4261 121.229 9.627C121.229 6.80673 123.381 4.79932 126.125 4.79932C127.891 4.79932 129.506 5.64752 130.243 7.01171L128.477 7.90233C128.005 7.06826 127.183 6.56641 126.118 6.56641C124.439 6.56641 123.288 7.88112 123.288 9.627C123.288 11.3729 124.439 12.6664 126.118 12.6664Z" fill="#FCFAF9"/>
<path d="M131.915 10.8641V5.04688H133.966V10.6026C133.966 12.0445 134.931 12.6878 136.139 12.6878C137.347 12.6878 138.312 12.0375 138.312 10.6026V5.04688H140.341V10.8641C140.341 12.7867 138.805 14.4337 136.139 14.4337C133.473 14.4337 131.915 12.7867 131.915 10.8641Z" fill="#FCFAF9"/>
<path d="M151.614 10.2349H144.338C144.502 11.6344 145.489 12.6664 146.94 12.6664C147.819 12.6664 148.641 12.3201 149.113 11.6132L151.429 11.6768C150.607 13.4793 148.905 14.4335 146.94 14.4335C144.195 14.4335 142.165 12.4049 142.165 9.61288C142.165 6.81381 144.152 4.8064 146.883 4.8064C149.363 4.8064 151.614 6.44625 151.614 10.2208V10.2349ZM144.338 8.75761H149.32C149.22 7.58426 148.255 6.56642 146.904 6.56642C145.524 6.56642 144.581 7.45703 144.338 8.75761Z" fill="#FCFAF9"/>
<path d="M155.545 14.1862H153.516V0H155.545V14.1862Z" fill="#FCFAF9"/>
<path d="M163.436 8.0437C163.436 7.06827 162.7 6.56642 161.507 6.56642C160.506 6.56642 159.598 6.99052 158.905 7.54185L157.94 6.04336C158.719 5.37186 160.027 4.8064 161.649 4.8064C164.087 4.8064 165.48 6.14232 165.48 8.09318V14.1932H163.429V13.2389C162.893 14.0871 161.749 14.4335 160.785 14.4335C158.676 14.4335 157.447 13.2389 157.447 11.5567C157.447 9.77545 158.719 8.75761 160.785 8.75761H162.772C163.243 8.75761 163.429 8.55263 163.429 8.19214V8.0437H163.436ZM163.436 10.8428V10.0511C163.25 10.1925 162.922 10.2561 162.45 10.2561H161.221C160.134 10.2561 159.584 10.7226 159.584 11.4931C159.584 12.1999 160.12 12.8502 161.221 12.8502C162.371 12.8502 163.436 12.2635 163.436 10.8428Z" fill="#FCFAF9"/>
<path d="M104.725 35.6103H102.695V21.4241H104.725V27.828C105.218 26.9162 106.505 26.2235 107.863 26.2235C110.55 26.2235 112.494 28.2309 112.494 31.03C112.494 33.829 110.507 35.8506 107.82 35.8506C106.49 35.8506 105.239 35.2003 104.725 34.2885V35.6103ZM104.661 31.03C104.661 32.7759 105.826 34.1118 107.527 34.1118C109.207 34.1118 110.393 32.7759 110.393 31.03C110.393 29.2841 109.207 27.9694 107.527 27.9694C105.826 27.9694 104.661 29.2912 104.661 31.03Z" fill="#FCFAF9"/>
<path d="M119.728 28.2522H118.663C117.348 28.2522 116.49 29.0014 116.49 31.0724V35.6103H114.46V26.4709H116.447V27.9341C116.797 26.9233 117.719 26.3154 119.006 26.3154C119.234 26.3154 119.477 26.3366 119.72 26.379V28.2522H119.728Z" fill="#FCFAF9"/>
<path d="M123.866 35.6103H121.815V28.132H120.422V26.4709H123.866V35.6103ZM122.716 21.7493C123.516 21.7493 124.174 22.3996 124.174 23.1912C124.174 23.9829 123.516 24.612 122.716 24.612C121.915 24.612 121.279 23.9829 121.279 23.1912C121.279 22.3996 121.915 21.7493 122.716 21.7493Z" fill="#FCFAF9"/>
<path d="M129.048 22.7812V26.4709H131.221V28.132H129.048V33.2566C129.048 33.8856 129.52 34.0058 129.992 34.0058C130.707 34.0058 131.243 33.921 131.243 33.921V35.6032C131.243 35.6032 130.235 35.7022 129.477 35.7022C128.369 35.7022 126.997 35.476 126.997 33.6948V28.132H125.482V26.4709H126.997V22.7812H129.048Z" fill="#FCFAF9"/>
<path d="M138.355 29.4749C138.355 28.4995 137.618 27.9976 136.425 27.9976C135.417 27.9976 134.517 28.4217 133.823 28.9731L132.859 27.4746C133.638 26.8031 134.946 26.2376 136.568 26.2376C139.005 26.2376 140.399 27.5735 140.399 29.5244V35.6244H138.347V34.6702C137.811 35.5184 136.668 35.8647 135.703 35.8647C133.595 35.8647 132.365 34.6702 132.365 32.9879C132.365 31.2067 133.638 30.1888 135.703 30.1888H137.69C138.162 30.1888 138.347 29.9839 138.347 29.6234V29.4749H138.355ZM138.355 32.2669V31.4753C138.169 31.6166 137.84 31.6803 137.368 31.6803H136.139C135.053 31.6803 134.502 32.1468 134.502 32.9172C134.502 33.6241 135.038 34.2743 136.139 34.2743C137.29 34.2743 138.355 33.6877 138.355 32.2669ZM135.996 21.4241H138.54L136.775 24.8522H134.81L135.996 21.4241Z" fill="#FCFAF9"/>
<path d="M144.874 27.0012C144.874 27.2627 144.874 27.4253 144.852 27.609C145.631 26.7184 146.696 26.2307 147.868 26.2307C150.041 26.2307 151.313 27.5666 151.313 29.6589V35.6175H149.262V29.9416C149.262 28.641 148.462 28.0331 147.44 28.0331C146.56 28.0331 145.696 28.4784 144.917 29.3691V35.6104H142.887V26.471H144.874V27.0012Z" fill="#FCFAF9"/>
<path d="M156.246 35.6103H154.195V28.132H152.801V26.4709H156.246V35.6103ZM155.095 21.7493C155.896 21.7493 156.553 22.3996 156.553 23.1912C156.553 23.9829 155.896 24.612 155.095 24.612C154.295 24.612 153.659 23.9829 153.659 23.1912C153.666 22.3996 154.295 21.7493 155.095 21.7493Z" fill="#FCFAF9"/>
<path d="M163.094 34.0907C164.159 34.0907 164.981 33.5818 165.453 32.7548L167.218 33.6454C166.482 35.0025 164.859 35.8578 163.101 35.8578C160.356 35.8578 158.205 33.8504 158.205 31.0513C158.205 28.231 160.356 26.2236 163.101 26.2236C164.866 26.2236 166.482 27.0718 167.218 28.436L165.453 29.3266C164.981 28.4926 164.159 27.9907 163.094 27.9907C161.414 27.9907 160.263 29.3054 160.263 31.0513C160.263 32.7972 161.407 34.0907 163.094 34.0907Z" fill="#FCFAF9"/>
<path d="M174.279 29.4751C174.279 28.4997 173.543 27.9978 172.35 27.9978C171.349 27.9978 170.441 28.4219 169.748 28.9732L168.783 27.4748C169.562 26.8033 170.87 26.2378 172.493 26.2378C174.93 26.2378 176.323 27.5737 176.323 29.5246V35.6246H174.272V34.6703C173.736 35.5185 172.593 35.8649 171.628 35.8649C169.519 35.8649 168.29 34.6703 168.29 32.9881C168.29 31.2068 169.562 30.189 171.628 30.189H173.615C174.086 30.189 174.272 29.984 174.272 29.6235V29.4751H174.279ZM174.279 32.2671V31.4754C174.094 31.6168 173.765 31.6804 173.293 31.6804H172.064C170.977 31.6804 170.427 32.1469 170.427 32.9174C170.427 33.6242 170.963 34.2745 172.064 34.2745C173.214 34.2745 174.279 33.6878 174.279 32.2671Z" fill="#FCFAF9"/>
<path d="M190.348 34.2744C189.855 35.1862 188.604 35.8577 187.253 35.8577C184.566 35.8577 182.6 33.829 182.6 31.037C182.6 28.238 184.53 26.2306 187.21 26.2306C188.583 26.2306 189.855 26.9233 190.37 27.8351C190.348 27.206 190.348 26.4568 190.348 25.7499V21.4312H192.4V35.6173H190.348V34.2744ZM184.694 31.03C184.694 32.7759 185.859 34.1118 187.561 34.1118C189.24 34.1118 190.427 32.7759 190.427 31.03C190.427 29.2841 189.24 27.9694 187.561 27.9694C185.859 27.9694 184.694 29.2912 184.694 31.03Z" fill="#FCFAF9"/>
<path d="M203.815 31.6592H196.538C196.703 33.0587 197.689 34.0907 199.14 34.0907C200.019 34.0907 200.841 33.7444 201.313 33.0375L203.629 33.1012C202.807 34.9036 201.106 35.8578 199.14 35.8578C196.395 35.8578 194.365 33.8292 194.365 31.0372C194.365 28.2381 196.352 26.2307 199.083 26.2307C201.563 26.2307 203.815 27.8706 203.815 31.6451V31.6592ZM196.538 30.1819H201.52C201.42 29.0086 200.455 27.9907 199.104 27.9907C197.725 27.9907 196.781 28.8813 196.538 30.1819Z" fill="#FCFAF9"/>
<path d="M107.941 50.8992C107.941 49.9237 107.205 49.4219 106.011 49.4219C105.003 49.4219 104.103 49.846 103.41 50.3973L102.445 48.8988C103.224 48.2273 104.532 47.6619 106.154 47.6619C108.591 47.6619 109.985 48.9978 109.985 50.9487V57.0486H107.934V56.0944C107.398 56.9426 106.254 57.289 105.289 57.289C103.181 57.289 101.952 56.0944 101.952 54.4121C101.952 52.6309 103.224 51.6131 105.289 51.6131H107.276C107.748 51.6131 107.934 51.4081 107.934 51.0476V50.8992H107.941ZM107.941 53.6912V52.8995C107.755 53.0409 107.426 53.1045 106.954 53.1045H105.725C104.639 53.1045 104.089 53.571 104.089 54.3415C104.089 55.0483 104.625 55.6986 105.725 55.6986C106.876 55.6986 107.941 55.1119 107.941 53.6912Z" fill="#FCFAF9"/>
<path d="M117.733 49.6835H116.668C115.353 49.6835 114.496 50.4328 114.496 52.5038V57.0417H112.466V47.8953H114.453V49.3584C114.803 48.3476 115.725 47.7397 117.012 47.7397C117.24 47.7397 117.483 47.7609 117.726 47.8034V49.6835H117.733Z" fill="#FCFAF9"/>
<path d="M122.022 44.2056V47.8952H124.195V49.5563H122.022V54.6809C122.022 55.3099 122.494 55.4301 122.966 55.4301C123.68 55.4301 124.216 55.3453 124.216 55.3453V57.0276C124.216 57.0276 123.209 57.1265 122.451 57.1265C121.343 57.1265 119.971 56.9003 119.971 55.1191V49.5492H118.456V47.8882H119.971V44.1985H122.022V44.2056Z" fill="#FCFAF9"/>
<path d="M134.91 53.0833H127.634C127.798 54.4828 128.784 55.5148 130.235 55.5148C131.115 55.5148 131.937 55.1685 132.408 54.4616L134.724 54.5252C133.902 56.3277 132.201 57.2819 130.235 57.2819C127.491 57.2819 125.461 55.2533 125.461 52.4613C125.461 49.6622 127.448 47.6548 130.178 47.6548C132.659 47.6548 134.91 49.2946 134.91 53.0691V53.0833ZM127.634 51.606H132.616C132.516 50.4327 131.551 49.4148 130.2 49.4148C128.827 49.4148 127.884 50.3125 127.634 51.606Z" fill="#FCFAF9"/>
<path d="M142.021 50.369C141.321 49.6975 140.299 49.3795 139.606 49.3795C138.805 49.3795 138.398 49.8036 138.398 50.2277C138.398 50.7366 138.627 50.9769 139.256 51.2031L140.856 51.7474C142.579 52.334 143.294 53.2671 143.294 54.4051C143.294 55.8682 142.164 57.2819 139.849 57.2819C138.334 57.2819 136.833 56.674 135.954 55.8399L137.161 54.2778C137.862 54.9635 138.941 55.4724 139.806 55.4724C140.628 55.4724 141.157 55.126 141.157 54.5818C141.157 53.9951 140.871 53.7548 139.842 53.4084L138.305 52.8783C137.011 52.433 136.297 51.4788 136.297 50.3478C136.297 49.0119 137.462 47.6548 139.677 47.6548C140.764 47.6548 142.221 48.0789 143.179 48.9695L142.021 50.369Z" fill="#FCFAF9"/>
<path d="M153.087 55.5148C154.152 55.5148 154.974 55.0059 155.446 54.1789L157.211 55.0695C156.475 56.4266 154.852 57.2819 153.094 57.2819C150.349 57.2819 148.198 55.2745 148.198 52.4754C148.198 49.6551 150.349 47.6477 153.094 47.6477C154.86 47.6477 156.475 48.4959 157.211 49.8601L155.446 50.7507C154.974 49.9166 154.152 49.4148 153.087 49.4148C151.407 49.4148 150.256 50.7295 150.256 52.4754C150.264 54.2213 151.407 55.5148 153.087 55.5148Z" fill="#FCFAF9"/>
<path d="M164.301 49.6835H163.236C161.921 49.6835 161.064 50.4328 161.064 52.5038V57.0417H159.034V47.8953H161.021V49.3584C161.371 48.3476 162.293 47.7397 163.579 47.7397C163.808 47.7397 164.051 47.7609 164.294 47.8034V49.6835H164.301Z" fill="#FCFAF9"/>
<path d="M174.609 53.0833H167.332C167.497 54.4828 168.483 55.5148 169.934 55.5148C170.813 55.5148 171.635 55.1685 172.107 54.4616L174.423 54.5252C173.601 56.3277 171.9 57.2819 169.934 57.2819C167.189 57.2819 165.159 55.2533 165.159 52.4613C165.159 49.6622 167.147 47.6548 169.877 47.6548C172.357 47.6548 174.609 49.2946 174.609 53.0691V53.0833ZM167.332 51.606H172.314C172.214 50.4327 171.249 49.4148 169.898 49.4148C168.519 49.4148 167.583 50.3125 167.332 51.606Z" fill="#FCFAF9"/>
<path d="M181.699 50.8992C181.699 49.9237 180.963 49.4219 179.769 49.4219C178.768 49.4219 177.861 49.846 177.168 50.3973L176.203 48.8988C176.982 48.2273 178.29 47.6619 179.912 47.6619C182.349 47.6619 183.743 48.9978 183.743 50.9487V57.0486H181.692V56.0944C181.156 56.9426 180.012 57.289 179.047 57.289C176.939 57.289 175.71 56.0944 175.71 54.4121C175.71 52.6309 176.982 51.6131 179.047 51.6131H181.034C181.506 51.6131 181.692 51.4081 181.692 51.0476V50.8992H181.699ZM181.699 53.6912V52.8995C181.513 53.0409 181.184 53.1045 180.712 53.1045H179.483C178.397 53.1045 177.847 53.571 177.847 54.3415C177.847 55.0483 178.383 55.6986 179.483 55.6986C180.634 55.6986 181.699 55.1119 181.699 53.6912Z" fill="#FCFAF9"/>
<path d="M188.832 44.2056V47.8952H191.005V49.5563H188.832V54.6809C188.832 55.3099 189.304 55.4301 189.776 55.4301C190.49 55.4301 191.026 55.3453 191.026 55.3453V57.0276C191.026 57.0276 190.019 57.1265 189.261 57.1265C188.153 57.1265 186.781 56.9003 186.781 55.1191V49.5492H185.266V47.8882H186.781V44.1985H188.832V44.2056Z" fill="#FCFAF9"/>
<path d="M195.351 57.0417H193.3V49.5563H191.906V47.8952H195.351V57.0417ZM194.201 43.1736C195.001 43.1736 195.659 43.8239 195.659 44.6155C195.659 45.4072 195.001 46.0363 194.201 46.0363C193.4 46.0363 192.764 45.4072 192.764 44.6155C192.764 43.8239 193.4 43.1736 194.201 43.1736Z" fill="#FCFAF9"/>
<path d="M201.642 55.1121L204.122 47.8953H206.295L202.893 57.0346H200.312L197.031 47.8953H199.304L201.642 55.1121Z" fill="#FCFAF9"/>
<path d="M212.935 50.8992C212.935 49.9237 212.198 49.4219 211.005 49.4219C209.997 49.4219 209.097 49.846 208.403 50.3973L207.439 48.8988C208.218 48.2273 209.525 47.6619 211.148 47.6619C213.585 47.6619 214.979 48.9978 214.979 50.9487V57.0486H212.927V56.0944C212.391 56.9426 211.248 57.289 210.283 57.289C208.175 57.289 206.945 56.0944 206.945 54.4121C206.945 52.6309 208.218 51.6131 210.283 51.6131H212.27C212.742 51.6131 212.927 51.4081 212.927 51.0476V50.8992H212.935ZM212.935 53.6912V52.8995C212.749 53.0409 212.42 53.1045 211.948 53.1045H210.719C209.633 53.1045 209.082 53.571 209.082 54.3415C209.082 55.0483 209.618 55.6986 210.719 55.6986C211.87 55.6986 212.935 55.1119 212.935 53.6912Z" fill="#FCFAF9"/>
<path d="M222.727 50.369C222.027 49.6975 221.005 49.3795 220.311 49.3795C219.511 49.3795 219.104 49.8036 219.104 50.2277C219.104 50.7366 219.332 50.9769 219.961 51.2031L221.562 51.7474C223.284 52.334 223.999 53.2671 223.999 54.4051C223.999 55.8682 222.87 57.2819 220.554 57.2819C219.039 57.2819 217.538 56.674 216.659 55.8399L217.867 54.2778C218.567 54.9635 219.647 55.4724 220.511 55.4724C221.333 55.4724 221.862 55.126 221.862 54.5818C221.862 53.9951 221.576 53.7548 220.547 53.4084L219.011 52.8783C217.717 52.433 217.002 51.4788 217.002 50.3478C217.002 49.0119 218.167 47.6548 220.383 47.6548C221.469 47.6548 222.927 48.0789 223.885 48.9695L222.727 50.369Z" fill="#FCFAF9"/>
<path d="M105.483 78.4658H105.075L101.773 69.3264H104.067L106.383 76.522L108.799 69.3264H110.994L107.077 79.9502C106.583 81.2649 105.804 82 104.167 82H102.731V80.3389H103.86C104.596 80.3389 104.947 80.0986 105.211 79.3069L105.483 78.4658Z" fill="#FCFAF9"/>
<path d="M119.127 65.6367V69.3264H121.3V70.9875H119.127V76.112C119.127 76.7411 119.599 76.8613 120.071 76.8613C120.785 76.8613 121.321 76.7764 121.321 76.7764V78.4587C121.321 78.4587 120.314 78.5577 119.556 78.5577C118.448 78.5577 117.076 78.3315 117.076 76.5503V70.9804H115.561V69.3193H117.076V65.6296H119.127V65.6367Z" fill="#FCFAF9"/>
<path d="M132.022 74.5076H124.746C124.91 75.9071 125.897 76.9391 127.348 76.9391C128.227 76.9391 129.049 76.5928 129.521 75.8859L131.837 75.9495C131.015 77.752 129.313 78.7062 127.348 78.7062C124.603 78.7062 122.573 76.6776 122.573 73.8856C122.573 71.0865 124.56 69.0791 127.291 69.0791C129.771 69.0791 132.022 70.719 132.022 74.4935V74.5076ZM124.746 73.0303H129.728C129.628 71.857 128.663 70.8391 127.312 70.8391C125.932 70.8391 124.989 71.7368 124.746 73.0303Z" fill="#FCFAF9"/>
<path d="M138.127 76.9462C139.192 76.9462 140.014 76.4373 140.485 75.6103L142.251 76.5009C141.515 77.858 139.892 78.7133 138.134 78.7133C135.389 78.7133 133.237 76.7059 133.237 73.9068C133.237 71.0865 135.389 69.0791 138.134 69.0791C139.899 69.0791 141.515 69.9273 142.251 71.2915L140.485 72.1821C140.014 71.348 139.192 70.8462 138.127 70.8462C136.447 70.8462 135.296 72.1609 135.296 73.9068C135.303 75.6456 136.447 76.9462 138.127 76.9462Z" fill="#FCFAF9"/>
<path d="M146.06 69.8495C146.06 70.1111 146.06 70.2737 146.039 70.4574C146.818 69.5668 147.883 69.0791 149.055 69.0791C151.228 69.0791 152.5 70.415 152.5 72.5073V78.4659H150.449V72.79C150.449 71.4894 149.648 70.8815 148.626 70.8815C147.747 70.8815 146.882 71.3268 146.103 72.2174V78.4588H144.074V69.3194H146.06V69.8495Z" fill="#FCFAF9"/>
<path d="M159.263 69.0791C161.986 69.0791 164.202 71.0865 164.202 73.8856C164.202 76.6846 161.986 78.7062 159.263 78.7062C156.539 78.7062 154.345 76.6776 154.345 73.8856C154.338 71.0865 156.532 69.0791 159.263 69.0791ZM159.263 70.8391C157.583 70.8391 156.411 72.1397 156.411 73.8785C156.411 75.6244 157.576 76.9391 159.263 76.9391C160.942 76.9391 162.115 75.6244 162.115 73.8785C162.107 72.1397 160.942 70.8391 159.263 70.8391Z" fill="#FCFAF9"/>
<path d="M168.233 78.4657H166.203V64.2725H168.233V78.4657Z" fill="#FCFAF9"/>
<path d="M175.166 69.0791C177.89 69.0791 180.105 71.0865 180.105 73.8856C180.105 76.6846 177.89 78.7062 175.166 78.7062C172.443 78.7062 170.249 76.6776 170.249 73.8856C170.242 71.0865 172.436 69.0791 175.166 69.0791ZM175.166 70.8391C173.487 70.8391 172.314 72.1397 172.314 73.8785C172.314 75.6244 173.479 76.9391 175.166 76.9391C176.846 76.9391 178.018 75.6244 178.018 73.8785C178.011 72.1397 176.846 70.8391 175.166 70.8391Z" fill="#FCFAF9"/>
<path d="M191.213 69.3194V79.1868C191.213 80.6076 190.498 81.9859 188.304 81.9859H184.43V80.3248H187.997C188.547 80.3248 189.162 80.1835 189.162 79.3494V77.1017C188.668 77.9923 187.418 78.6638 186.067 78.6638C183.401 78.6638 181.435 76.6776 181.435 73.8785C181.435 71.0582 183.365 69.072 186.045 69.072C187.396 69.072 188.668 69.7647 189.183 70.6765C189.183 70.4716 189.162 70.2524 189.162 69.9697V69.3194H191.213ZM186.374 76.9462C188.075 76.9462 189.24 75.6315 189.24 73.8856C189.24 72.1185 188.075 70.8038 186.374 70.8038C184.694 70.8038 183.522 72.1185 183.522 73.8856C183.522 75.6244 184.694 76.9462 186.374 76.9462Z" fill="#FCFAF9"/>
<path d="M196.252 78.4657H194.222V70.9874H192.807V69.3263H196.252V78.4657ZM194.408 64.2725H196.952L195.187 67.7006H193.222L194.408 64.2725Z" fill="#FCFAF9"/>
<path d="M204.078 72.3235C204.078 71.3481 203.342 70.8462 202.149 70.8462C201.141 70.8462 200.241 71.2703 199.547 71.8216L198.582 70.3231C199.361 69.6517 200.669 69.0862 202.292 69.0862C204.729 69.0862 206.122 70.4221 206.122 72.373V78.473H204.071V77.5187C203.535 78.3669 202.392 78.7133 201.427 78.7133C199.319 78.7133 198.089 77.5187 198.089 75.8365C198.089 74.0552 199.361 73.0374 201.427 73.0374H203.414C203.885 73.0374 204.071 72.8324 204.071 72.4719V72.3235H204.078ZM204.078 75.1226V74.3309C203.893 74.4723 203.564 74.5359 203.092 74.5359H201.863C200.777 74.5359 200.226 75.0024 200.226 75.7728C200.226 76.4797 200.762 77.13 201.863 77.13C203.014 77.1229 204.078 76.5362 204.078 75.1226Z" fill="#FCFAF9"/>
</svg>
