<svg width="25" height="25" viewBox="0 0 25 25" fill="none" xmlns="http://www.w3.org/2000/svg">
<g filter="url(#filter0_d_2014_1121)">
<path fill-rule="evenodd" clip-rule="evenodd" d="M11.7782 0.518932C10.233 0.670303 8.80492 1.23988 7.55276 2.20416C6.94299 2.67374 6.15111 3.55623 5.6935 4.27612C5.49586 4.58703 5.11115 5.37487 4.97333 5.75085C4.81924 6.17128 4.655 6.81376 4.57418 7.31229C4.47527 7.92247 4.47527 9.08097 4.57418 9.69115C4.71403 10.5537 4.93527 11.2511 5.31394 12.0231C5.72768 12.8665 6.15788 13.4643 6.84677 14.1532C7.5357 14.8421 8.13355 15.2723 8.97695 15.6861C9.74895 16.0647 10.4463 16.286 11.3089 16.4258C11.919 16.5247 13.0775 16.5247 13.6877 16.4258C14.5503 16.286 15.2476 16.0647 16.0196 15.6861C16.863 15.2723 17.4609 14.8421 18.1498 14.1532C18.8387 13.4643 19.2689 12.8665 19.6826 12.0231C19.9574 11.4628 20.0956 11.0957 20.2437 10.5327C20.4408 9.78289 20.4909 9.37188 20.4909 8.50172C20.4909 7.63156 20.4408 7.22055 20.2437 6.47077C20.0956 5.90776 19.9574 5.54061 19.6826 4.98038C19.2689 4.13699 18.8387 3.53914 18.1498 2.85021C17.4609 2.16131 16.863 1.73112 16.0196 1.31738C15.2484 0.939051 14.5372 0.713341 13.7034 0.58216C13.2433 0.509793 12.2159 0.47605 11.7782 0.518932ZM13.2429 1.77425C14.7692 1.94237 16.1664 2.61902 17.2737 3.72632C18.5728 5.02549 19.2592 6.67629 19.2592 8.50172C19.2592 10.3271 18.5728 11.978 17.2737 13.2771C15.9745 14.5763 14.3237 15.2627 12.4983 15.2627C10.6729 15.2627 9.02205 14.5763 7.72288 13.2771C6.42371 11.978 5.73732 10.3271 5.73732 8.50172C5.73732 6.67629 6.42371 5.02549 7.72288 3.72632C8.815 2.63421 10.2268 1.94443 11.7158 1.7755C12.0603 1.73644 12.8934 1.73575 13.2429 1.77425ZM12.2286 4.27339C12.0783 4.34166 11.9558 4.49068 11.9049 4.66738C11.8789 4.75759 11.8715 5.33934 11.8784 6.74888C11.8877 8.65434 11.8896 8.70843 11.9525 8.83038C12.0049 8.93182 12.2544 9.13559 13.2672 9.90381C13.9547 10.4253 14.58 10.8897 14.6568 10.9357C15.1802 11.2495 15.7988 10.6911 15.5339 10.1439C15.4705 10.0129 15.3446 9.90903 14.2938 9.12079L13.1243 8.24355V6.49925C13.1243 5.27849 13.1136 4.72303 13.0887 4.64857C12.9999 4.38348 12.7704 4.21489 12.4983 4.21489C12.4208 4.21489 12.2995 4.24122 12.2286 4.27339Z" fill="#AEAEAE"/>
<path fill-rule="evenodd" clip-rule="evenodd" d="M11.7782 0.518932C10.233 0.670303 8.80492 1.23988 7.55276 2.20416C6.94299 2.67374 6.15111 3.55623 5.6935 4.27612C5.49586 4.58703 5.11115 5.37487 4.97333 5.75085C4.81924 6.17128 4.655 6.81376 4.57418 7.31229C4.47527 7.92247 4.47527 9.08097 4.57418 9.69115C4.71403 10.5537 4.93527 11.2511 5.31394 12.0231C5.72768 12.8665 6.15788 13.4643 6.84677 14.1532C7.5357 14.8421 8.13355 15.2723 8.97695 15.6861C9.74895 16.0647 10.4463 16.286 11.3089 16.4258C11.919 16.5247 13.0775 16.5247 13.6877 16.4258C14.5503 16.286 15.2476 16.0647 16.0196 15.6861C16.863 15.2723 17.4609 14.8421 18.1498 14.1532C18.8387 13.4643 19.2689 12.8665 19.6826 12.0231C19.9574 11.4628 20.0956 11.0957 20.2437 10.5327C20.4408 9.78289 20.4909 9.37188 20.4909 8.50172C20.4909 7.63156 20.4408 7.22055 20.2437 6.47077C20.0956 5.90776 19.9574 5.54061 19.6826 4.98038C19.2689 4.13699 18.8387 3.53914 18.1498 2.85021C17.4609 2.16131 16.863 1.73112 16.0196 1.31738C15.2484 0.939051 14.5372 0.713341 13.7034 0.58216C13.2433 0.509793 12.2159 0.47605 11.7782 0.518932ZM13.2429 1.77425C14.7692 1.94237 16.1664 2.61902 17.2737 3.72632C18.5728 5.02549 19.2592 6.67629 19.2592 8.50172C19.2592 10.3271 18.5728 11.978 17.2737 13.2771C15.9745 14.5763 14.3237 15.2627 12.4983 15.2627C10.6729 15.2627 9.02205 14.5763 7.72288 13.2771C6.42371 11.978 5.73732 10.3271 5.73732 8.50172C5.73732 6.67629 6.42371 5.02549 7.72288 3.72632C8.815 2.63421 10.2268 1.94443 11.7158 1.7755C12.0603 1.73644 12.8934 1.73575 13.2429 1.77425ZM12.2286 4.27339C12.0783 4.34166 11.9558 4.49068 11.9049 4.66738C11.8789 4.75759 11.8715 5.33934 11.8784 6.74888C11.8877 8.65434 11.8896 8.70843 11.9525 8.83038C12.0049 8.93182 12.2544 9.13559 13.2672 9.90381C13.9547 10.4253 14.58 10.8897 14.6568 10.9357C15.1802 11.2495 15.7988 10.6911 15.5339 10.1439C15.4705 10.0129 15.3446 9.90903 14.2938 9.12079L13.1243 8.24355V6.49925C13.1243 5.27849 13.1136 4.72303 13.0887 4.64857C12.9999 4.38348 12.7704 4.21489 12.4983 4.21489C12.4208 4.21489 12.2995 4.24122 12.2286 4.27339Z" stroke="#AEAEAE" stroke-width="0.2"/>
</g>
<defs>
<filter id="filter0_d_2014_1121" x="0.399994" y="0.399902" width="24.1909" height="24.2002" filterUnits="userSpaceOnUse" color-interpolation-filters="sRGB">
<feFlood flood-opacity="0" result="BackgroundImageFix"/>
<feColorMatrix in="SourceAlpha" type="matrix" values="0 0 0 0 0 0 0 0 0 0 0 0 0 0 0 0 0 0 127 0" result="hardAlpha"/>
<feOffset dy="4"/>
<feGaussianBlur stdDeviation="2"/>
<feComposite in2="hardAlpha" operator="out"/>
<feColorMatrix type="matrix" values="0 0 0 0 0 0 0 0 0 0 0 0 0 0 0 0 0 0 0.25 0"/>
<feBlend mode="normal" in2="BackgroundImageFix" result="effect1_dropShadow_2014_1121"/>
<feBlend mode="normal" in="SourceGraphic" in2="effect1_dropShadow_2014_1121" result="shape"/>
</filter>
</defs>
</svg>
