<svg width="5558" height="2392" viewBox="0 0 5558 2392" fill="none" xmlns="http://www.w3.org/2000/svg">
<path d="M2891.77 1878.41C3062.08 1744.87 3660.57 1016.85 3378.67 828.098C3016.94 585.889 2390.22 1079.06 2606.76 1304.96C2893.46 1604.05 3554.62 691.25 3319.21 428.245C3083.8 165.24 2607.26 310.121 2086.49 1035.91" stroke="#434343" stroke-width="24" stroke-linecap="round"/>
<path d="M4530.41 90.4251C4346.99 205.3 3675.19 866.272 3935.66 1083.65C4269.89 1362.59 4945.03 938.13 4753.47 690.689C4499.85 363.081 3746.28 1201.22 3952.7 1487.54C4159.12 1773.87 4648.26 1679.95 5242.53 1013.01" stroke="#434343" stroke-width="24" stroke-linecap="round"/>
<path d="M1156.35 2309.94C1339.01 2193.85 2006.38 1528.42 1744.48 1312.78C1408.4 1036.07 736.098 1465.01 929.298 1711.18C1185.09 2037.09 1933.07 1193.95 1724.75 909.008C1516.43 624.065 1027.92 721.234 438.105 1392.11" stroke="#434343" stroke-width="24" stroke-linecap="round"/>
</svg>
