<svg width="14" height="11" viewBox="0 0 14 11" fill="none" xmlns="http://www.w3.org/2000/svg">
<path fill-rule="evenodd" clip-rule="evenodd" d="M12.3711 0.911883C12.1049 0.995733 12.0967 1.00347 8.717 4.35769L5.3916 7.65803L3.88691 6.16548C2.48923 4.7791 2.37009 4.66731 2.21217 4.59389C1.81074 4.4073 1.38385 4.46626 1.06538 4.75227C0.812695 4.97918 0.687797 5.34022 0.74859 5.66799C0.810824 6.00351 0.771728 5.9598 2.86987 8.03904C4.70523 9.85789 4.81885 9.96553 4.97422 10.0328C5.17096 10.118 5.44327 10.144 5.62542 10.0949C5.93325 10.012 5.8014 10.1361 9.74287 6.21856C13.8261 2.16008 13.5928 2.40865 13.6549 2.04883C13.7408 1.55073 13.4262 1.06569 12.9179 0.91241C12.7747 0.869255 12.5073 0.869004 12.3711 0.911883Z" fill="#FE6D44"/>
</svg>
